<?xml version="1.0" encoding="UTF-8"?>
<svg id="Layer_1" xmlns="http://www.w3.org/2000/svg" version="1.1" viewBox="0 0 80 80">
  <!-- Generator: Adobe Illustrator 30.2.1, SVG Export Plug-In . SVG Version: 2.1.1 Build 1)  -->
  <defs>
    <style>
      .st0 {
        fill: #00aac5;
      }
    </style>
  </defs>
  <path class="st0" d="M16.68,31.83c.1.02.2.03.23-.09-.12-.08-.18-.03-.23.09Z"/>
  <path class="st0" d="M16.77,31.52l.02-.23c-.19-.02-.17.19-.02.23Z"/>
  <path class="st0" d="M16.55,32.18c-.05.12.03.24.14.13-.04-.06-.04-.22-.14-.13Z"/>
  <path class="st0" d="M16.38,32.28c-.13-.12-.11.15.01.15.09-.03.04-.11-.01-.15Z"/>
  <path class="st0" d="M15.81,31.42c.03.08.1.17.2.16.04-.17-.07-.16-.2-.16Z"/>
  <path class="st0" d="M15.94,32.36s.01.05.01.07c.06,0,.03-.07-.01-.07Z"/>
  <path class="st0" d="M15.79,32.39c.09.02.12-.04.13-.12-.09-.05-.1.07-.13.12Z"/>
  <path class="st0" d="M15.68,31.4s.11.14.16.11c0-.07-.1-.17-.16-.11Z"/>
  <path class="st0" d="M15.62,32.49c.1.07.16,0,.21-.09-.07-.02-.17.04-.21.09Z"/>
  <path class="st0" d="M15.77,31.33c-.07-.07-.15-.03-.21.03.07.07.15.04.21-.03Z"/>
  <path class="st0" d="M15.59,31.18c-.07,0-.22.03-.14.13.03-.03.21-.06.14-.13Z"/>
  <path class="st0" d="M34.2,38.68l-.09.14c.13.33.4-.42.09-.14Z"/>
  <path class="st0" d="M32.48,41.53s.08.09.12.1c.06-.13-.14-.3-.12-.1Z"/>
  <path class="st0" d="M33.4,39.83s.18.16.24.1c-.02-.17-.1-.17-.24-.1Z"/>
  <path class="st0" d="M33.16,40.52c-.04-.12-.12.04-.14.11.06,0,.15-.04.14-.11Z"/>
  <path class="st0" d="M57.38,34.48c-.88-.24-2.21.43-3.06.12-.87-.21-1.24-1.22-1.94-1.91-1.94-1.92-2.68-4.56-4.01-6.92-.25-.59-.8-1.12-.17-1.13.49-.14.33-.71-.09-1.03-1.38-.67-3.06,0-4.58-.64-.99-.33-2.16-.45-2.99.19-1.17.82-2.49-.32-3.67-.65-.84-.3-1.75-.58-1.59-1.69-.03-.54-.36-.74-1.01-.73-2.3-.21-4.94.81-7.05.9-.63,0-1.18.13-1.7.53-.94.66-1.51,1.82-2.18,2.73-1.47,1.47-3.57,3.2-3.26,5.53.16,1.08-.21,2.69-.06,3.59.2.67.69.87,1.11,1.41.59.83,1.38,2.01,2.62,2.74,2.18,1.17,4.7.09,6.98-.16,1.1.03,1.94.66,2.91.96,1.7.58.55,2.55,1.33,3.78.69,1.23,1.63,2.28,1.79,3.79.31,1.63-.85,2.81-.58,4.6.78,2.73,1.92,5.51,3.16,8.01.76,2.68,5.42,1.08,6.75-.37.85-.74,1.26-1.78,1.84-2.7.47-.72.81-1.02,1.03-1.73.16-.71,0-1.44.46-2.07.6-.92,2.13-1.47,2.45-2.54.58-1.75-.88-4.48-.87-6,.79-.49,1.37-1.12,1.99-1.85,1.29-1.52,5.5-4.51,4.49-6.68l-.09-.05Z"/>
  <path class="st0" d="M51.46,43.56c-.08,0-.1.1-.09.16.06,0,.17-.13.09-.16Z"/>
  <path class="st0" d="M51.18,43.99c-.13.09.02.28.14.26-.02-.05-.07-.24-.14-.26Z"/>
  <path class="st0" d="M54.05,47.38c-.16.05-.16.08-.04.19.14-.02.08-.1.04-.19Z"/>
  <path class="st0" d="M53.72,47.58c-.05-.13-.18-.1-.28-.06.07.07.19.13.28.06Z"/>
  <path class="st0" d="M53.38,47.12c-.15.15-.06.15.1.19-.02-.05,0-.22-.1-.19Z"/>
  <path class="st0" d="M56.69,47.48c-.37.57-.9,1.37-1.43,1.71-.39.28-.69.33-.93.48-.54.4-.52,1.12-.63,1.95.05.98-.56,2.63.55,3.19,1.77.78,3.61-6.44,2.49-7.36l-.06.04Z"/>
  <path class="st0" d="M56.21,48.05l-.18-.07c0,.16.19.3.18.07Z"/>
  <path class="st0" d="M57.59,46.51c.16.05.17-.08.18-.2-.09-.03-.15.15-.18.2Z"/>
  <path class="st0" d="M55.75,46.05c-.18.11-.1.1.05.15.13-.11.09-.11-.05-.15Z"/>
</svg>