<?xml version="1.0" encoding="UTF-8"?>
<svg id="Layer_1" xmlns="http://www.w3.org/2000/svg" version="1.1" viewBox="0 0 80 80">
  <!-- Generator: Adobe Illustrator 30.2.1, SVG Export Plug-In . SVG Version: 2.1.1 Build 1)  -->
  <defs>
    <style>
      .st0 {
        fill: #de3244;
      }
    </style>
  </defs>
  <path class="st0" d="M46.26,37.68c-.23-.31-.55-.24-.84-.05.22.2.59.19.84.05Z"/>
  <path class="st0" d="M45.51,38.17c.32.2.23-.52-.11-.38.07.09.13.27.11.38Z"/>
  <path class="st0" d="M45.57,37.42s-.06-.02-.08,0c.02.02.06.03.08,0Z"/>
  <path class="st0" d="M59.64,42.98c-1.18-1.26-3.73-1.68-4.34-3.33-.13-.3-.25-.69-.42-.92-.23-.32-.6-.13-.9.07-1.63,1.18-4.18,3.5-6.26,1.94-.65-.48-.27-1.83-.86-2.23-.34-.09-.73.94-1,.82l-.13-.09c-.72-1.54-1.27-2.86-2.52-4.15-.55-.83-1.85-2.08-1.41-2.95.46-.59.22-.92-.1-1.73-.51-1.29-1.07-2.52-2.21-3.26-1.35-.89-1.94-2.01-1.32-3.53.38-1.22-1.1-2.26-1.92-2.99-1.13-.83-2.68-.61-3.99-.47-2.35.31-4.81.83-7.16.74-1.69-.22-2.91,1.24-3.11,2.8-.26,2.43-3.05,4.94-2.01,7.52.26.62.4.84.72.59.05,0,0,.07-.04.23-.12.41-.35,1.35-.18,1.97.18.79.75,1.39,1.25,2.01,1.44,1.68,2.37,3.9,4.02,5.46,1.33,1.39,1.35,3.63,2.42,5.22.7,1,1.82,1.73,2.49,2.81.5.8,1.03,1.61,1.58,2.39,1.83,2.29.21,8.6,4.86,7.12,2.03-.53,4.09-1.53,6.03-2.37,2.87-1.04,4.66-1.91,7.02-3.53,2.89-1.2,6.01-2.38,7.47-5.14.72-1.72,3.8-2.96,2.14-4.87l-.12-.13Z"/>
  <path class="st0" d="M48.7,38.83c.22-.13.03-.39-.05-.55-.35.16-.46.66.05.55Z"/>
  <path class="st0" d="M44.75,35.33c-.24-.23-.45-.21-.66.05.28.19.5.38.66-.05Z"/>
</svg>